<?xml version="1.0" encoding="UTF-8" standalone="no"?>
<!DOCTYPE svg PUBLIC "-//W3C//DTD SVG 1.1//EN"
 "http://www.w3.org/Graphics/SVG/1.1/DTD/svg11.dtd">
<!-- Generated by graphviz version 2.36.0 (20140111.2315)
 -->
<!-- Title: 18:59 dogviz 2016&#45;05&#45;21 Pages: 1 -->
<svg width="439pt" height="333pt"
 viewBox="0.00 0.00 439.00 333.00" xmlns="http://www.w3.org/2000/svg" xmlns:xlink="http://www.w3.org/1999/xlink">
<g id="graph0" class="graph" transform="scale(1 1) rotate(0) translate(4 329)">
<title>18:59 dogviz 2016&#45;05&#45;21</title>
<polygon fill="white" stroke="none" points="-4,4 -4,-329 435,-329 435,4 -4,4"/>
<g id="clust1" class="cluster"><title>cluster_classes</title>
<polygon fill="none" stroke="black" points="8,-8 8,-286 176,-286 176,-8 8,-8"/>
<text text-anchor="middle" x="92" y="-270.8" font-family="Times,serif" font-size="14.00">classes</text>
</g>
<g id="clust3" class="cluster"><title>cluster_usage_example_DOG</title>
<polygon fill="none" stroke="black" points="184,-8 184,-317 402,-317 402,-8 184,-8"/>
<text text-anchor="middle" x="293" y="-301.8" font-family="Times,serif" font-size="14.00">example DOG</text>
</g>
<g id="clust4" class="cluster"><title>cluster_usage_example_DOG_a_container</title>
<polygon fill="none" stroke="black" points="192,-94 192,-286 394,-286 394,-94 192,-94"/>
<text text-anchor="middle" x="293" y="-270.8" font-family="Times,serif" font-size="14.00">a container</text>
</g>
<g id="clust5" class="cluster"><title>cluster_usage_example_DOG_a_container_a_nested_container</title>
<polygon fill="none" stroke="black" points="200,-102 200,-177 386,-177 386,-102 200,-102"/>
<text text-anchor="middle" x="293" y="-161.8" font-family="Times,serif" font-size="14.00">a nested container</text>
</g>
<!-- classes_System -->
<g id="node1" class="node"><title>classes_System</title>
<polygon fill="none" stroke="black" points="96.25,-255 39.75,-255 39.75,-219 96.25,-219 96.25,-255"/>
<text text-anchor="middle" x="68" y="-233.3" font-family="Times,serif" font-size="14.00">System</text>
</g>
<!-- classes_Thing -->
<g id="node2" class="node"><title>classes_Thing</title>
<polygon fill="none" stroke="black" points="93,-52 39,-52 39,-16 93,-16 93,-52"/>
<text text-anchor="middle" x="66" y="-30.3" font-family="Times,serif" font-size="14.00">Thing</text>
</g>
<!-- classes_System&#45;&gt;classes_Thing -->
<g id="edge1" class="edge"><title>classes_System&#45;&gt;classes_Thing</title>
<path fill="none" stroke="black" d="M69.875,-218.797C73.25,-186.031 80,-120.5 80,-120.5 80,-120.5 74.6534,-87.4656 70.5684,-62.2261"/>
<polygon fill="black" stroke="black" points="74.0219,-61.6567 68.969,-52.3444 67.1118,-62.7752 74.0219,-61.6567"/>
<text text-anchor="middle" x="57" y="-124.3" font-family="Times,serif" font-size="14.00">contains</text>
</g>
<!-- classes_Container -->
<g id="node3" class="node"><title>classes_Container</title>
<polygon fill="none" stroke="black" points="168,-146 98,-146 98,-110 168,-110 168,-146"/>
<text text-anchor="middle" x="133" y="-124.3" font-family="Times,serif" font-size="14.00">Container</text>
</g>
<!-- classes_System&#45;&gt;classes_Container -->
<g id="edge2" class="edge"><title>classes_System&#45;&gt;classes_Container</title>
<path fill="none" stroke="black" d="M78.4434,-218.809C88.9621,-201.493 105.317,-174.57 117.379,-154.714"/>
<polygon fill="black" stroke="black" points="120.382,-156.513 122.583,-146.149 114.399,-152.878 120.382,-156.513"/>
<text text-anchor="middle" x="122" y="-189.3" font-family="Times,serif" font-size="14.00">contains</text>
</g>
<!-- classes_Container&#45;&gt;classes_Thing -->
<g id="edge3" class="edge"><title>classes_Container&#45;&gt;classes_Thing</title>
<path fill="none" stroke="black" d="M120.398,-109.696C110.291,-95.8174 95.9587,-76.1373 84.5426,-60.4614"/>
<polygon fill="black" stroke="black" points="87.2619,-58.25 78.5457,-52.2269 81.6034,-62.3709 87.2619,-58.25"/>
<text text-anchor="middle" x="125" y="-74.3" font-family="Times,serif" font-size="14.00">contains</text>
</g>
<!-- usage_example_DOG_a_thing_outside_a_container -->
<g id="node4" class="node"><title>usage_example_DOG_a_thing_outside_a_container</title>
<polygon fill="none" stroke="black" points="353.25,-52 192.75,-52 192.75,-16 353.25,-16 353.25,-52"/>
<text text-anchor="middle" x="273" y="-30.3" font-family="Times,serif" font-size="14.00">a thing outside a container</text>
</g>
<!-- usage_example_DOG_a_container_a_thing_in_a_container -->
<g id="node5" class="node"><title>usage_example_DOG_a_container_a_thing_in_a_container</title>
<polygon fill="none" stroke="black" points="359,-255 227,-255 227,-219 359,-219 359,-255"/>
<text text-anchor="middle" x="293" y="-233.3" font-family="Times,serif" font-size="14.00">a thing in a container</text>
</g>
<!-- usage_example_DOG_a_container_a_nested_container_a_thing_in_a_nested_container -->
<g id="node6" class="node"><title>usage_example_DOG_a_container_a_nested_container_a_thing_in_a_nested_container</title>
<polygon fill="none" stroke="black" points="378,-146 208,-146 208,-110 378,-110 378,-146"/>
<text text-anchor="middle" x="293" y="-124.3" font-family="Times,serif" font-size="14.00">a thing in a nested container</text>
</g>
<!-- usage_example_DOG_a_container_a_thing_in_a_container&#45;&gt;usage_example_DOG_a_container_a_nested_container_a_thing_in_a_nested_container -->
<g id="edge4" class="edge"><title>usage_example_DOG_a_container_a_thing_in_a_container&#45;&gt;usage_example_DOG_a_container_a_nested_container_a_thing_in_a_nested_container</title>
<path fill="none" stroke="black" d="M293,-218.809C293,-201.961 293,-176.018 293,-156.339"/>
<polygon fill="black" stroke="black" points="296.5,-156.149 293,-146.149 289.5,-156.149 296.5,-156.149"/>
</g>
<!-- usage_example_DOG_a_container_a_nested_container_a_thing_in_a_nested_container&#45;&gt;usage_example_DOG_a_thing_outside_a_container -->
<g id="edge5" class="edge"><title>usage_example_DOG_a_container_a_nested_container_a_thing_in_a_nested_container&#45;&gt;usage_example_DOG_a_thing_outside_a_container</title>
<path fill="none" stroke="black" d="M289.238,-109.696C286.333,-96.3314 282.258,-77.5871 278.917,-62.2192"/>
<polygon fill="black" stroke="black" points="282.289,-61.2551 276.745,-52.2269 275.449,-62.7422 282.289,-61.2551"/>
<text text-anchor="middle" x="357" y="-74.3" font-family="Times,serif" font-size="14.00">things point to other things</text>
</g>
</g>
</svg>
